<svg width="76" height="76" viewBox="0 0 76 76" fill="none" xmlns="http://www.w3.org/2000/svg">
<path d="M38.2893 67.8446C55.2491 67.8446 68.9975 54.0962 68.9975 37.1364C68.9975 20.1768 55.2491 6.42822 38.2893 6.42822C21.3296 6.42822 7.58105 20.1768 7.58105 37.1364C7.58105 54.0962 21.3296 67.8446 38.2893 67.8446Z" fill="#F0F3F5"/>
<path d="M31.9645 33.8511L12.9957 27.9217L13.616 25.9392L32.5822 31.8712L31.9645 33.8511ZM63.5888 27.9217L62.9686 25.9392L44.0025 31.8739L44.6227 33.8536L63.5888 27.9217ZM39.3315 10.1492H37.2555V20.5678H39.3315V10.1492ZM29.0323 10.7875L27.9036 9.04638L16.2031 16.6339L17.3318 18.3751L29.0323 10.7875ZM60.3816 16.6339L48.6836 9.03857L47.5524 10.7798L59.2527 18.3673L60.3816 16.6339ZM14.7837 51.507L10.3412 35.2472L8.33789 35.7948L12.7804 52.0441L14.7837 51.507ZM68.2389 35.8052L66.2357 35.2575L61.7957 51.507L63.7963 52.0545L68.2389 35.8052ZM48.5979 63.1581H27.6026V65.234H48.5979V63.1581ZM33.0778 43.7196L31.4535 42.422L20.3576 56.3646L21.982 57.6621L33.0778 43.7196ZM56.2115 56.3699L45.1287 42.4273L43.5041 43.7249L54.6001 57.6672L56.2115 56.3699Z" fill="#9DA2AF"/>
<path d="M26.6079 11.3975L27.4851 9.2359C30.9413 7.93842 34.6036 7.27558 38.2953 7.27931C41.9864 7.27556 45.6478 7.93839 49.1032 9.2359L49.9802 11.3975C50.0279 11.5146 50.0495 11.6407 50.0438 11.767C50.0383 11.8933 50.0053 12.0169 49.9473 12.1293C49.8895 12.2417 49.808 12.3402 49.7085 12.4181C49.6087 12.496 49.4936 12.5515 49.3706 12.5808L38.4952 15.1419C38.363 15.1731 38.2253 15.1731 38.0931 15.1419L27.2203 12.5808C27.0971 12.5518 26.9817 12.4966 26.8818 12.4188C26.7818 12.341 26.7 12.2424 26.6418 12.13C26.5837 12.0176 26.5506 11.8939 26.5446 11.7675C26.5388 11.641 26.5605 11.5148 26.6079 11.3975ZM63.0508 50.4484L53.0502 55.428C52.9279 55.4883 52.8219 55.5772 52.7413 55.6875L46.0153 64.5931C45.9393 64.694 45.8861 64.8101 45.8592 64.9333C45.8322 65.0567 45.8322 65.1843 45.8594 65.3078C45.8866 65.431 45.94 65.5468 46.0162 65.6475C46.0925 65.7481 46.1894 65.831 46.3007 65.8906L48.3559 66.9936C55.3847 64.5466 61.2904 59.6384 64.9815 53.1756L64.2758 50.9569C64.2374 50.8367 64.1733 50.7261 64.0881 50.6328C64.0029 50.5393 63.8988 50.4656 63.7825 50.4164C63.6662 50.3671 63.5407 50.3436 63.4143 50.3473C63.2881 50.351 63.1641 50.3818 63.0508 50.438V50.4484ZM30.5756 64.5931L23.8521 55.6744C23.7701 55.5648 23.6635 55.4759 23.5407 55.4151L13.5426 50.4352C13.4292 50.3793 13.305 50.3484 13.1786 50.3445C13.0522 50.3408 12.9265 50.3643 12.81 50.4136C12.6935 50.4629 12.589 50.5368 12.5036 50.6301C12.4182 50.7234 12.3539 50.8339 12.3152 50.9544L11.612 53.1731C15.3016 59.6365 21.2064 64.5459 28.235 66.9936L30.2902 65.8906C30.401 65.8308 30.4977 65.7476 30.5737 65.647C30.6497 65.5463 30.7029 65.4305 30.7301 65.3073C30.7571 65.1841 30.7573 65.0567 30.7308 64.9335C30.7041 64.8103 30.6511 64.6942 30.5756 64.5931ZM58.4475 17.0622C58.3211 17.0629 58.1963 17.0908 58.0818 17.1442C57.9671 17.1976 57.8656 17.2752 57.7838 17.3715C57.7018 17.4679 57.6417 17.5808 57.6076 17.7026C57.5735 17.8243 57.5662 17.9519 57.586 18.0768L59.3506 29.1078C59.3715 29.2423 59.4229 29.3701 59.501 29.4814L66.004 38.5636C66.0777 38.6663 66.1728 38.7517 66.2829 38.8142C66.3928 38.8766 66.5148 38.9146 66.6408 38.9254C66.7668 38.9362 66.8934 38.9196 67.0123 38.877C67.1314 38.8342 67.2396 38.7663 67.3299 38.6778L68.9881 37.0535C68.7753 29.6076 65.8522 22.4953 60.7674 17.0518L58.4475 17.0622ZM10.5869 38.5661L17.0742 29.4841C17.152 29.3722 17.2043 29.2446 17.2273 29.1103L18.9893 18.0794C19.0091 17.9545 19.0018 17.8269 18.9676 17.7052C18.9335 17.5834 18.8734 17.4705 18.7916 17.3741C18.7098 17.2778 18.6081 17.2002 18.4936 17.1468C18.379 17.0934 18.2542 17.0655 18.1278 17.0648H15.8079C10.7239 22.5085 7.8017 29.6207 7.58984 37.0664L9.24538 38.6907C9.33669 38.781 9.44664 38.8503 9.56752 38.8936C9.68841 38.9367 9.81738 38.953 9.94522 38.941C10.0731 38.9293 10.1967 38.8897 10.3076 38.8247C10.4185 38.76 10.5138 38.6718 10.5869 38.5661ZM35.908 22.4051L26.0787 29.5463C25.385 30.0502 24.8689 30.7607 24.6041 31.576C24.3394 32.3915 24.3394 33.2696 24.6047 34.0849L28.3596 45.6399C28.6247 46.4552 29.141 47.1656 29.8347 47.6695C30.5281 48.1734 31.3634 48.445 32.2209 48.445H44.3703C45.2282 48.4475 46.0651 48.1785 46.7608 47.6767C47.4568 47.1746 47.9761 46.4653 48.2444 45.6502L51.9965 34.0952C52.2616 33.28 52.2618 32.4018 51.9972 31.5863C51.7324 30.7711 51.2163 30.0606 50.5226 29.5567L40.693 22.4155C39.9993 21.9074 39.1622 21.6326 38.3022 21.6307C37.4423 21.6289 36.604 21.9 35.908 22.4051Z" fill="#22252A"/>
</svg>
