<svg width="33" height="33" viewBox="0 0 33 33" fill="none" xmlns="http://www.w3.org/2000/svg">
<path d="M5.45802 5.9117V23.6051C5.45613 24.3701 5.67377 25.1197 6.08497 25.7649C6.49618 26.4101 7.08401 26.9237 7.77833 27.245L14.445 30.4052C14.9995 30.6752 15.6082 30.8153 16.2249 30.8153C16.8417 30.8153 17.4503 30.6752 18.0049 30.4052L24.6716 27.245C25.3457 26.9209 25.9154 26.4144 26.3161 25.7828C26.7168 25.1512 26.9326 24.4198 26.9385 23.6718V5.9117C26.935 5.49094 26.8483 5.07512 26.6833 4.68807C26.5182 4.30102 26.2781 3.95028 25.9769 3.65649C25.6757 3.3627 25.3191 3.13147 24.9281 2.97615C24.537 2.82084 24.119 2.74449 23.6983 2.75154H8.84474C8.41242 2.72626 7.97997 2.78917 7.5726 2.93611C7.16524 3.08305 6.79158 3.31125 6.47495 3.60669C6.15832 3.90213 5.90492 4.25863 5.73016 4.65486C5.55539 5.05109 5.46269 5.47867 5.45802 5.9117Z" fill="#FFDC44"/>
<path d="M16.125 13.9494C15.735 11.9475 14.125 9.37883 8.125 9.4611C8.125 9.4611 8.595 18.8491 15.745 16.3353C15.975 17.3043 16.345 20.4397 13.205 24.7452C13.1321 24.8474 13.1059 24.9717 13.1321 25.0913C13.1583 25.2109 13.2347 25.3164 13.345 25.3851C13.4298 25.4312 13.5263 25.4564 13.625 25.4582C13.7074 25.4576 13.7885 25.439 13.8615 25.404C13.9346 25.369 13.9974 25.3187 14.045 25.2571C17.135 21.0156 17.045 17.8162 16.795 16.445C23.675 18.6115 24.125 9.4611 24.125 9.4611C18.125 9.36054 16.515 11.9475 16.125 13.9494Z" fill="#00CB7F"/>
</svg>
