<svg width="33" height="32" viewBox="0 0 33 32" fill="none" xmlns="http://www.w3.org/2000/svg">
<path d="M5.45802 5.7867V23.4801C5.45613 24.2451 5.67377 24.9947 6.08497 25.6399C6.49618 26.2851 7.08401 26.7987 7.77833 27.12L14.445 30.2802C14.9995 30.5502 15.6082 30.6903 16.2249 30.6903C16.8417 30.6903 17.4503 30.5502 18.0049 30.2802L24.6716 27.12C25.3457 26.7959 25.9154 26.2894 26.3161 25.6578C26.7168 25.0262 26.9326 24.2948 26.9385 23.5468V5.7867C26.935 5.36594 26.8483 4.95012 26.6833 4.56307C26.5182 4.17602 26.2781 3.82528 25.9769 3.53149C25.6757 3.2377 25.3191 3.00647 24.9281 2.85115C24.537 2.69584 24.119 2.61949 23.6983 2.62654H8.84474C8.41242 2.60126 7.97997 2.66417 7.5726 2.81111C7.16524 2.95805 6.79158 3.18625 6.47495 3.48169C6.15832 3.77713 5.90492 4.13363 5.73016 4.52986C5.55539 4.92609 5.46269 5.35367 5.45802 5.7867Z" fill="#FF4D37"/>
<path d="M20.8714 13.3337H17.938L19.4847 4.81372L11.3647 17.2937H14.3114L12.7647 25.8137L20.8714 13.3337Z" fill="#FFD205"/>
<path d="M19.4851 4.81372L17.9384 13.3337H20.8718L12.7651 25.8137L18.8984 14.2804H16.6451L19.4851 4.81372Z" fill="#FFAA05"/>
<path d="M19.4847 4.81372L11.3647 17.2937H14.3114L12.7647 25.8137L15.618 16.4004H13.298L19.4847 4.81372Z" fill="#FFE94D"/>
</svg>
