<svg width="74" height="74" viewBox="0 0 74 74" fill="none" xmlns="http://www.w3.org/2000/svg">
<path d="M24.6665 40.0833L27.7498 58.5833" stroke="#FFC645" stroke-width="2" stroke-linecap="round" stroke-linejoin="round"/>
<path d="M58.5833 40.0833C60.2862 40.0833 61.6667 37.3224 61.6667 33.9167C61.6667 30.5109 60.2862 27.75 58.5833 27.75C56.8805 27.75 55.5 30.5109 55.5 33.9167C55.5 37.3224 56.8805 40.0833 58.5833 40.0833Z" fill="#596872"/>
<path d="M21.5835 43.1667H22.1077C32.9029 43.1863 43.4502 46.4052 52.4168 52.4167V15.4167C43.4502 21.4283 32.9029 24.6472 22.1077 24.6667H21.5835V43.1667Z" fill="#DFE8EF"/>
<path d="M52.4165 15.4167C55.8082 15.4167 58.5832 23.7109 58.5832 33.9167C58.5832 44.1226 55.8082 52.4167 52.4165 52.4167" fill="#DFE8EF"/>
<path d="M18.5 43.1667C16.0467 43.1667 13.694 42.1922 11.9593 40.4575C10.2246 38.7228 9.25 36.37 9.25 33.9167C9.25 31.4635 10.2246 29.1107 11.9593 27.376C13.694 25.6413 16.0467 24.6667 18.5 24.6667H21.5833V43.1667H18.5Z" fill="#596872"/>
</svg>
